<svg width="32" height="28" viewBox="0 0 32 28" fill="none" xmlns="http://www.w3.org/2000/svg">
<path d="M7.15688 9.5498H5.52322C3.7867 9.5498 2.91978 9.54981 2.30399 9.89762C1.76166 10.2034 1.3449 10.6851 1.12717 11.2613C0.880046 11.9162 1.02164 12.7576 1.3075 14.4376V14.4402L2.55378 21.7902C2.76617 23.0371 2.87169 23.6605 3.18827 24.1291C3.46879 24.5412 3.86017 24.8667 4.31968 25.0701C4.84063 25.2998 5.48448 25.2998 6.77084 25.2998H18.2292C19.5155 25.2998 20.158 25.2998 20.6803 25.0701C21.1398 24.8667 21.5325 24.5412 21.8117 24.1291C22.1283 23.6605 22.2338 23.0371 22.4449 21.7902L23.6925 14.4402V14.4349C23.9784 12.7549 24.12 11.9149 23.8728 11.2613C23.6554 10.6856 23.2394 10.2031 22.6973 9.89762C22.0816 9.54981 21.2133 9.5498 19.4768 9.5498H17.8431M7.15688 9.5498H17.8431M7.15688 9.5498C7.15688 8.15742 7.71981 6.82206 8.72184 5.83749C9.72387 4.85293 11.0829 4.2998 12.5 4.2998C13.9171 4.2998 15.2761 4.85293 16.2782 5.83749C17.2802 6.82206 17.8431 8.15742 17.8431 9.5498" stroke="black" stroke-width="1.5" stroke-linecap="round" stroke-linejoin="round"/>
<circle cx="24.5" cy="7.7998" r="7.5" fill="#E4032E"/>
<path d="M26.87 11.1973H22.81C22.76 10.9273 22.76 10.4973 22.81 10.2173H24.25V5.44727H22.79C22.75 5.17727 22.75 4.75727 22.79 4.47727H25.43V10.2173H26.87C26.92 10.4973 26.92 10.9273 26.87 11.1973Z" fill="white"/>
</svg>
