<svg width="30" height="30" viewBox="0 0 30 30" fill="none" xmlns="http://www.w3.org/2000/svg">
<path fill-rule="evenodd" clip-rule="evenodd" d="M13.0265 15.0604V22.3991C13.0265 22.5044 13.1118 22.59 13.2177 22.59H15.9425C16.048 22.59 16.1337 22.5044 16.1337 22.3991V14.9411H18.1095C18.2088 14.9411 18.2917 14.8651 18.2998 14.7658L18.49 12.5188C18.4992 12.4071 18.4113 12.3114 18.2995 12.3114H16.1337V10.7173C16.1337 10.3434 16.4366 10.0408 16.8104 10.0408H18.3327C18.4387 10.0408 18.5239 9.95514 18.5239 9.84945V7.60246C18.5239 7.49678 18.4387 7.41111 18.3327 7.41111H15.76C14.2502 7.41111 13.0265 8.63529 13.0265 10.1453V12.3114H11.6637C11.5582 12.3114 11.4727 12.3971 11.4727 12.5028V14.7498C11.4727 14.8555 11.5582 14.9411 11.6637 14.9411H13.0265V15.0604Z" fill="black"/>
</svg>
