<svg width="30" height="30" viewBox="0 0 30 30" fill="none" xmlns="http://www.w3.org/2000/svg">
<path d="M18.8779 6.30629C19.7658 6.34681 20.3795 6.47727 20.9474 6.69801C21.5157 6.91884 21.946 7.19878 22.3736 7.62643C22.8012 8.05407 23.0811 8.48433 23.3021 9.05264C23.5228 9.62067 23.6532 10.2343 23.6937 11.1221C23.7439 12.2231 23.75 12.6112 23.75 15C23.75 17.3888 23.7439 17.7769 23.6937 18.8779C23.6532 19.7657 23.5228 20.3793 23.302 20.9475C23.0811 21.5157 22.8012 21.946 22.3736 22.3735C21.946 22.8012 21.5157 23.0812 20.9474 23.302C20.3792 23.5228 19.7656 23.6532 18.8779 23.6937C17.7772 23.7439 17.3892 23.75 15 23.75C12.6108 23.75 12.2228 23.7439 11.1221 23.6937C10.2344 23.6532 9.62072 23.5228 9.0525 23.302C8.48429 23.0811 8.05395 22.8012 7.62639 22.3736C7.19877 21.946 6.91881 21.5156 6.69794 20.9474C6.47724 20.3793 6.34681 19.7657 6.30629 18.8779C6.25609 17.7776 6.25 17.3898 6.25 15C6.25 12.6102 6.25609 12.2224 6.3063 11.122C6.34681 10.2343 6.47724 9.62067 6.69797 9.05255C6.91878 8.48439 7.19874 8.05408 7.62635 7.62647C8.05395 7.19882 8.48429 6.91886 9.05252 6.69801C9.62047 6.47728 10.2342 6.34681 11.122 6.30629C12.2224 6.25609 12.6102 6.25 15 6.25C17.3898 6.25 17.7776 6.25609 18.8779 6.30629ZM15 8.19444C12.6372 8.19444 12.2758 8.20012 11.2107 8.24872C10.5347 8.27957 10.1288 8.36584 9.75691 8.51038C9.43936 8.63381 9.23758 8.76507 9.00132 9.00136C8.76501 9.23767 8.63374 9.43944 8.51039 9.75683C8.36582 10.1289 8.27957 10.5347 8.24872 11.2107C8.20012 12.2758 8.19444 12.6372 8.19444 15C8.19444 17.3628 8.20012 17.7242 8.24872 18.7893C8.27957 19.4653 8.36582 19.8711 8.51035 20.2431C8.63375 20.5606 8.76504 20.7624 9.00136 20.9987C9.23758 21.2349 9.43936 21.3662 9.7568 21.4896C10.129 21.6342 10.5347 21.7204 11.2107 21.7512C12.2763 21.7999 12.6379 21.8056 15 21.8056C17.3621 21.8056 17.7237 21.7999 18.7893 21.7512C19.4653 21.7204 19.871 21.6342 20.2431 21.4896C20.5606 21.3662 20.7624 21.2349 20.9987 20.9986C21.2349 20.7624 21.3662 20.5606 21.4896 20.2432C21.6342 19.8711 21.7204 19.4653 21.7513 18.7893C21.7999 17.7235 21.8056 17.3618 21.8056 15C21.8056 12.6382 21.7999 12.2765 21.7513 11.2107C21.7204 10.5347 21.6342 10.1289 21.4897 9.75698C21.3662 9.4394 21.2349 9.23761 20.9987 9.00132C20.7624 8.76508 20.5606 8.63381 20.2431 8.51039C19.8711 8.36584 19.4653 8.27957 18.7893 8.24872C17.7242 8.20012 17.3628 8.19444 15 8.19444ZM15 19.537C12.4943 19.537 10.463 17.5057 10.463 15C10.463 12.4943 12.4943 10.463 15 10.463C17.5057 10.463 19.537 12.4943 19.537 15C19.537 17.5057 17.5057 19.537 15 19.537ZM15 17.5926C16.4318 17.5926 17.5926 16.4318 17.5926 15C17.5926 13.5682 16.4318 12.4074 15 12.4074C13.5682 12.4074 12.4074 13.5682 12.4074 15C12.4074 16.4318 13.5682 17.5926 15 17.5926ZM19.537 11.4352C19.0001 11.4352 18.5648 10.9999 18.5648 10.463C18.5648 9.92602 19.0001 9.49074 19.537 9.49074C20.074 9.49074 20.5093 9.92602 20.5093 10.463C20.5093 10.9999 20.074 11.4352 19.537 11.4352Z" fill="black"/>
</svg>
