<svg width="100" height="40" viewBox="0 0 100 40" fill="none" xmlns="http://www.w3.org/2000/svg">
<path d="M8.42413 6H2.80078V20.23C2.80078 21.7667 4.04745 23.0134 5.58412 23.0134H27.5475V18.76H8.42413V6Z" fill="black"/>
<path d="M2.80078 31.52C2.95411 32.9167 4.13412 34 5.56745 34H62.4176V31.52H2.80078Z" fill="#E4032E"/>
<path d="M97.2919 31.52C97.1419 32.9167 95.9586 34 94.5253 34H62.4219V31.52H97.2919Z" fill="#FFED00"/>
<path d="M91.6641 6V20.23C91.6641 21.7667 92.9107 23.0134 94.4474 23.0134H97.2874V6H91.6641Z" fill="black"/>
<path d="M32.0469 6V20.23C32.0469 21.7667 33.2935 23.0134 34.8302 23.0134H56.7936V18.76H37.6702V16.28H56.7936V12.7333H37.6702V10.2533H56.7936V6H32.0469Z" fill="black"/>
<path d="M78.8747 6L68.0446 13.4467V6H62.418V23.3534L70.5546 17.7567L78.2013 23.0134H87.658L75.2847 14.5067L87.658 6H78.8747Z" fill="black"/>
</svg>
