<svg width="18" height="13" viewBox="0 0 18 13" fill="none" xmlns="http://www.w3.org/2000/svg">
<path d="M1 12.2998C0.716667 12.2998 0.479333 12.2038 0.288 12.0118C0.0960001 11.8205 0 11.5831 0 11.2998C0 11.0165 0.0960001 10.7791 0.288 10.5878C0.479333 10.3958 0.716667 10.2998 1 10.2998H17C17.2833 10.2998 17.5207 10.3958 17.712 10.5878C17.904 10.7791 18 11.0165 18 11.2998C18 11.5831 17.904 11.8205 17.712 12.0118C17.5207 12.2038 17.2833 12.2998 17 12.2998H1ZM1 7.2998C0.716667 7.2998 0.479333 7.2038 0.288 7.0118C0.0960001 6.82047 0 6.58314 0 6.2998C0 6.01647 0.0960001 5.7788 0.288 5.5868C0.479333 5.39547 0.716667 5.2998 1 5.2998H17C17.2833 5.2998 17.5207 5.39547 17.712 5.5868C17.904 5.7788 18 6.01647 18 6.2998C18 6.58314 17.904 6.82047 17.712 7.0118C17.5207 7.2038 17.2833 7.2998 17 7.2998H1ZM1 2.2998C0.716667 2.2998 0.479333 2.20414 0.288 2.0128C0.0960001 1.8208 0 1.58314 0 1.2998C0 1.01647 0.0960001 0.778805 0.288 0.586805C0.479333 0.395472 0.716667 0.299805 1 0.299805H17C17.2833 0.299805 17.5207 0.395472 17.712 0.586805C17.904 0.778805 18 1.01647 18 1.2998C18 1.58314 17.904 1.8208 17.712 2.0128C17.5207 2.20414 17.2833 2.2998 17 2.2998H1Z" fill="black"/>
</svg>
