<svg width="30" height="30" viewBox="0 0 30 30" fill="none" xmlns="http://www.w3.org/2000/svg">
<path d="M11.6 24.5688C12.5 24.8406 13.4094 25 14.375 25C16.8614 25 19.246 24.0123 21.0041 22.2541C22.7623 20.496 23.75 18.1114 23.75 15.625C23.75 14.3939 23.5075 13.1748 23.0364 12.0373C22.5652 10.8999 21.8747 9.86642 21.0041 8.99587C20.1336 8.12532 19.1001 7.43477 17.9627 6.96363C16.8252 6.49249 15.6061 6.25 14.375 6.25C13.1439 6.25 11.9248 6.49249 10.7873 6.96363C9.64992 7.43477 8.61642 8.12532 7.74587 8.99587C5.98772 10.754 5 13.1386 5 15.625C5 19.6094 7.50312 23.0312 11.0375 24.3813C10.9531 23.65 10.8687 22.4406 11.0375 21.6062L12.1156 16.975C12.1156 16.975 11.8438 16.4312 11.8438 15.5687C11.8438 14.275 12.65 13.3094 13.5688 13.3094C14.375 13.3094 14.75 13.9 14.75 14.6594C14.75 15.4656 14.2156 16.6187 13.9438 17.725C13.7844 18.6438 14.4313 19.45 15.3688 19.45C17.0375 19.45 18.3312 17.6687 18.3312 15.1562C18.3312 12.9062 16.7188 11.3688 14.4031 11.3688C11.7594 11.3688 10.2031 13.3375 10.2031 15.4094C10.2031 16.2156 10.4656 17.0312 10.8969 17.5656C10.9812 17.6219 10.9813 17.6969 10.9531 17.8375L10.6813 18.8594C10.6813 19.0188 10.5781 19.075 10.4188 18.9625C9.21875 18.4375 8.525 16.7312 8.525 15.3531C8.525 12.3906 10.625 9.7 14.675 9.7C17.9 9.7 20.4125 12.0156 20.4125 15.0906C20.4125 18.3156 18.4156 20.9031 15.5563 20.9031C14.6469 20.9031 13.7563 20.4156 13.4375 19.8438L12.8094 22.0656C12.5938 22.8719 12.0031 23.95 11.6 24.5969V24.5688Z" fill="black"/>
</svg>
