<svg width="48" height="49" viewBox="0 0 48 49" fill="none" xmlns="http://www.w3.org/2000/svg">
<rect y="0.104004" width="48" height="48" rx="24" fill="black"/>
<path d="M15.2812 25.6518C15.3935 23.8541 15.4747 22.5791 15.663 21.6143C15.8471 20.6708 16.116 20.128 16.534 19.7353C16.952 19.3426 17.5105 19.1081 18.4637 18.9832C19.4383 18.8555 20.7159 18.854 22.517 18.854H25.4858C27.2869 18.854 28.5645 18.8555 29.5392 18.9832C30.4924 19.1081 31.0509 19.3426 31.4689 19.7353C31.8868 20.128 32.1557 20.6708 32.3399 21.6143C32.5281 22.5791 32.6093 23.8541 32.7217 25.6518C32.8475 27.6658 32.9355 29.0991 32.8543 30.1894C32.7748 31.2581 32.5393 31.8748 32.1123 32.3293C31.6853 32.7838 31.0845 33.0573 30.0229 33.2033C28.9398 33.3523 27.5038 33.354 25.4858 33.354H22.517C20.4991 33.354 19.0631 33.3523 17.9799 33.2033C16.9183 33.0573 16.3175 32.7838 15.8906 32.3293C15.4636 31.8748 15.228 31.2581 15.1485 30.1894C15.0674 29.0991 15.1553 27.6658 15.2812 25.6518Z" stroke="white" stroke-width="2"/>
<path fill-rule="evenodd" clip-rule="evenodd" d="M19.8516 21.104C20.3896 21.104 20.7321 20.4711 20.6027 19.9489C20.5356 19.6783 20.5 19.3953 20.5 19.104C20.5 17.171 22.067 15.604 24 15.604C25.933 15.604 27.5 17.171 27.5 19.104C27.5 19.3953 27.4644 19.6783 27.3973 19.9489C27.2679 20.4711 27.6105 21.104 28.1484 21.104C28.413 21.104 28.6563 20.9485 28.7406 20.6978C28.9088 20.1972 29 19.6613 29 19.104C29 16.3426 26.7614 14.104 24 14.104C21.2386 14.104 19 16.3426 19 19.104C19 19.6613 19.0912 20.1972 19.2594 20.6978C19.3436 20.9485 19.587 21.104 19.8516 21.104Z" fill="white"/>
<path d="M20.5 25.104C20.7761 25.104 21 24.8801 21 24.604C21 24.3279 20.7761 24.104 20.5 24.104C20.2239 24.104 20 24.3279 20 24.604C20 24.8801 20.2239 25.104 20.5 25.104Z" stroke="white" stroke-width="2"/>
<path d="M27.5 25.104C27.7761 25.104 28 24.8801 28 24.604C28 24.3279 27.7761 24.104 27.5 24.104C27.2239 24.104 27 24.3279 27 24.604C27 24.8801 27.2239 25.104 27.5 25.104Z" stroke="white" stroke-width="2"/>
</svg>
