<svg width="30" height="30" viewBox="0 0 30 30" fill="none" xmlns="http://www.w3.org/2000/svg">
<path d="M12.5 18.75L17.3656 15.9375L12.5 13.125V18.75ZM23.3375 11.4094C23.4594 11.85 23.5438 12.4406 23.6 13.1906C23.6656 13.9406 23.6938 14.5875 23.6938 15.15L23.75 15.9375C23.75 17.9906 23.6 19.5 23.3375 20.4656C23.1031 21.3094 22.5594 21.8531 21.7156 22.0875C21.275 22.2094 20.4688 22.2938 19.2313 22.35C18.0125 22.4156 16.8969 22.4438 15.8656 22.4438L14.375 22.5C10.4469 22.5 8 22.35 7.03438 22.0875C6.19063 21.8531 5.64688 21.3094 5.4125 20.4656C5.29063 20.025 5.20625 19.4344 5.15 18.6844C5.08438 17.9344 5.05625 17.2875 5.05625 16.725L5 15.9375C5 13.8844 5.15 12.375 5.4125 11.4094C5.64688 10.5656 6.19063 10.0219 7.03438 9.7875C7.475 9.66563 8.28125 9.58125 9.51875 9.525C10.7375 9.45937 11.8531 9.43125 12.8844 9.43125L14.375 9.375C18.3031 9.375 20.75 9.525 21.7156 9.7875C22.5594 10.0219 23.1031 10.5656 23.3375 11.4094Z" fill="black"/>
</svg>
