<svg width="24" height="24" viewBox="0 0 24 24" fill="none" xmlns="http://www.w3.org/2000/svg">
<path d="M12 0C9.62663 0 7.30655 0.703787 5.33316 2.02236C3.35977 3.34094 1.8217 5.21508 0.913451 7.4078C0.00519921 9.60051 -0.232441 12.0133 0.230582 14.3411C0.693605 16.6689 1.83649 18.807 3.51472 20.4853C5.19295 22.1635 7.33115 23.3064 9.65892 23.7694C11.9867 24.2324 14.3995 23.9948 16.5922 23.0865C18.7849 22.1783 20.6591 20.6402 21.9776 18.6668C23.2962 16.6934 24 14.3734 24 12C23.9963 8.81855 22.7308 5.76847 20.4812 3.51884C18.2315 1.26922 15.1815 0.00373629 12 0ZM5.34589 20.2353C6.03623 19.0874 7.0118 18.1376 8.17778 17.4782C9.34376 16.8188 10.6605 16.4723 12 16.4723C13.3395 16.4723 14.6562 16.8188 15.8222 17.4782C16.9882 18.1376 17.9638 19.0874 18.6541 20.2353C16.7722 21.7613 14.4229 22.5942 12 22.5942C9.57709 22.5942 7.22781 21.7613 5.34589 20.2353ZM8 11.0588C8 10.2677 8.2346 9.49434 8.67412 8.83654C9.11365 8.17874 9.73836 7.66605 10.4693 7.3633C11.2002 7.06055 12.0044 6.98134 12.7804 7.13568C13.5563 7.29002 14.269 7.67098 14.8284 8.23039C15.3878 8.7898 15.7688 9.50254 15.9231 10.2785C16.0775 11.0544 15.9983 11.8586 15.6955 12.5896C15.3928 13.3205 14.8801 13.9452 14.2223 14.3847C13.5645 14.8242 12.7911 15.0588 12 15.0588C10.9391 15.0588 9.92172 14.6374 9.17158 13.8872C8.42143 13.1371 8 12.1197 8 11.0588ZM19.7071 19.2518C18.598 17.5272 16.9402 16.2267 15.0012 15.56C15.968 14.916 16.702 13.978 17.0946 12.8846C17.4871 11.7913 17.5175 10.6006 17.1811 9.48872C16.8447 8.3768 16.1594 7.40264 15.2266 6.71028C14.2937 6.01792 13.1629 5.6441 12.0012 5.6441C10.8395 5.6441 9.70862 6.01792 8.7758 6.71028C7.84297 7.40264 7.1577 8.3768 6.82129 9.48872C6.48489 10.6006 6.51521 11.7913 6.90778 12.8846C7.30035 13.978 8.03432 14.916 9.00118 15.56C7.0622 16.2267 5.40439 17.5272 4.2953 19.2518C2.87745 17.7472 1.93109 15.8604 1.57299 13.8242C1.21489 11.7881 1.46071 9.69164 2.28013 7.79356C3.09954 5.89549 4.4567 4.27882 6.18415 3.14302C7.91161 2.00722 9.93378 1.40198 12.0012 1.40198C14.0686 1.40198 16.0907 2.00722 17.8182 3.14302C19.5457 4.27882 20.9028 5.89549 21.7222 7.79356C22.5416 9.69164 22.7875 11.7881 22.4294 13.8242C22.0713 15.8604 21.1249 17.7472 19.7071 19.2518Z" fill="black"/>
</svg>
