<svg width="24" height="22" viewBox="0 0 24 22" fill="none" xmlns="http://www.w3.org/2000/svg">
<path d="M12 21.4626C11.6583 21.4626 11.3289 21.3389 11.0722 21.114C10.1027 20.2662 9.16791 19.4695 8.3432 18.7668L8.33899 18.7631C5.92108 16.7026 3.83313 14.9232 2.38037 13.1703C0.756409 11.2108 0 9.35278 0 7.32306C0 5.35101 0.676208 3.53168 1.90393 2.19995C3.1463 0.852478 4.85101 0.110352 6.70459 0.110352C8.08997 0.110352 9.3587 0.54834 10.4755 1.41205C11.0391 1.84802 11.5499 2.38159 12 3.00397C12.4503 2.38159 12.9609 1.84802 13.5247 1.41205C14.6415 0.54834 15.9102 0.110352 17.2956 0.110352C19.149 0.110352 20.8539 0.852478 22.0963 2.19995C23.324 3.53168 24 5.35101 24 7.32306C24 9.35278 23.2438 11.2108 21.6198 13.1702C20.1671 14.9232 18.0793 16.7025 15.6617 18.7628C14.8356 19.4666 13.8994 20.2646 12.9276 21.1144C12.6711 21.3389 12.3415 21.4626 12 21.4626ZM6.70459 1.51624C5.24835 1.51624 3.91058 2.09741 2.93738 3.15283C1.94971 4.22418 1.4057 5.70514 1.4057 7.32306C1.4057 9.03015 2.04016 10.5569 3.46271 12.2733C4.83765 13.9324 6.88275 15.6752 9.25067 17.6932L9.25507 17.6969C10.0829 18.4024 11.0213 19.2022 11.998 20.0562C12.9805 19.2006 13.9204 18.3995 14.7499 17.6929C17.1176 15.6749 19.1625 13.9324 20.5375 12.2733C21.9598 10.5569 22.5943 9.03015 22.5943 7.32306C22.5943 5.70514 22.0503 4.22418 21.0626 3.15283C20.0896 2.09741 18.7516 1.51624 17.2956 1.51624C16.2288 1.51624 15.2494 1.85535 14.3846 2.52405C13.6139 3.12024 13.077 3.8739 12.7623 4.40125C12.6004 4.67242 12.3155 4.83429 12 4.83429C11.6845 4.83429 11.3996 4.67242 11.2377 4.40125C10.9232 3.8739 10.3863 3.12024 9.61542 2.52405C8.75061 1.85535 7.77118 1.51624 6.70459 1.51624Z" fill="black"/>
</svg>
